<svg width="24" height="24" viewBox="0 0 24 24" fill="none" xmlns="http://www.w3.org/2000/svg">
<path fill-rule="evenodd" clip-rule="evenodd" d="M2.4 0H21.6C22.92 0 24 1.08 24 2.4V21.6C24 22.92 22.92 24 21.6 24H2.4C1.08 24 0 22.92 0 21.6V2.4C0 1.08 1.08 0 2.4 0ZM3.6001 20.3996H7.2001V9.59961H3.6001V20.3996ZM5.4 7.56C4.2 7.56 3.24 6.6 3.24 5.4C3.24 4.2 4.2 3.24 5.4 3.24C6.6 3.24 7.56 4.2 7.56 5.4C7.56 6.6 6.6 7.56 5.4 7.56ZM16.8001 20.4004H20.4001V13.5604C20.4001 11.2804 18.4801 9.36035 16.2001 9.36035C15.1201 9.36035 13.8001 10.0804 13.2001 11.0404V9.60035H9.6001V20.4004H13.2001V14.0404C13.2001 13.0804 14.0401 12.2404 15.0001 12.2404C15.9601 12.2404 16.8001 13.0804 16.8001 14.0404V20.4004Z" fill="white"/>
</svg>
